<svg xmlns="http://www.w3.org/2000/svg" width="1200" height="1200" viewBox="0 0 1200 1200" role="img" aria-labelledby="title desc">
  <title id="title">Mnemazine logo</title>
  <desc id="desc">Minimal profile of Mnemosyne, goddess of memory, with a memory spiral and graph nodes.</desc>
  <defs>
    <linearGradient id="memory" x1="240" y1="180" x2="940" y2="1020" gradientUnits="userSpaceOnUse">
      <stop offset="0" stop-color="#07172a"/>
      <stop offset="0.55" stop-color="#0039a6"/>
      <stop offset="1" stop-color="#d52b1e"/>
    </linearGradient>
    <filter id="soft" x="-20%" y="-20%" width="140%" height="140%">
      <feDropShadow dx="0" dy="18" stdDeviation="18" flood-color="#0f172a" flood-opacity="0.08"/>
    </filter>
  </defs>
  <rect width="1200" height="1200" rx="260" fill="#ffffff"/>
  <g fill="none" stroke-linecap="round" stroke-linejoin="round" filter="url(#soft)">
    <path d="M570 176c-128 0-224 89-224 210 0 36-22 70-52 90-18 12-24 34-9 49l29 28c12 12 14 30 6 45-9 17-2 39 17 46 35 13 75-11 106 13 33 25 20 90-5 138-24 46-48 103-38 172 18 130 122 203 248 203 155 0 279-112 279-250 0-117-89-207-200-207-94 0-171 66-171 149 0 70 55 124 125 124 52 0 94-37 94-83 0-35-27-63-62-63-25 0-45 18-45 40 0 15 11 27 26 27" stroke="url(#memory)" stroke-width="26"/>
    <path d="M382 451c28-28 75-27 108 6" stroke="#07172a" stroke-width="14"/>
    <path d="M411 493c18 17 48 16 65-2" stroke="#07172a" stroke-width="12"/>
    <path d="M492 243c97 13 173 99 171 205-2 120-107 167-158 249" stroke="#07172a" stroke-width="22"/>
    <path d="M460 278c127 31 200 187 357 181 87-4 143-63 146-139" stroke="#0039a6" stroke-width="16"/>
    <path d="M492 243c62 5 101 45 120 112" stroke="#07172a" stroke-width="14"/>
    <path d="M606 230c57 27 81 79 63 143" stroke="#07172a" stroke-width="14"/>
    <path d="M673 307c44 43 47 96 9 149" stroke="#07172a" stroke-width="14"/>
    <path d="M550 310c-44 2-74 22-91 56 47 18 91 13 132-13" stroke="#07172a" stroke-width="12"/>
    <path d="M566 205c-5 60 16 106 63 137 17-59-1-104-63-137Z" stroke="#07172a" stroke-width="12"/>
    <path d="M657 220c-22 56-11 104 31 143 31-53 21-100-31-143Z" stroke="#07172a" stroke-width="12"/>
    <path d="M743 303c-36 44-41 90-15 138 42-41 46-86 15-138Z" stroke="#07172a" stroke-width="12"/>
    <path d="M777 456l124-134 128 128-75 176-174-68z" stroke="#07172a" stroke-width="12"/>
    <path d="M901 322c80 24 130 72 147 128" stroke="#0039a6" stroke-width="12"/>
    <path d="M954 626c71 87 72 189 2 307" stroke="#d52b1e" stroke-width="12"/>
    <path d="M780 558c77 76 110 167 100 273" stroke="#07172a" stroke-width="10"/>
  </g>
  <g>
    <circle cx="901" cy="322" r="25" fill="#0039a6"/>
    <circle cx="1029" cy="450" r="25" fill="#0039a6"/>
    <circle cx="954" cy="626" r="25" fill="#d52b1e"/>
    <circle cx="879" cy="746" r="25" fill="#d52b1e"/>
    <circle cx="777" cy="456" r="25" fill="#07172a"/>
    <circle cx="780" cy="558" r="25" fill="#07172a"/>
  </g>
</svg>
