<svg xmlns="http://www.w3.org/2000/svg" width="1280" height="720" viewBox="0 0 1280 720">
  <rect width="1280" height="720" fill="#ffffff"/>
  <text x="72" y="98" font-family="-apple-system,Segoe UI,sans-serif" font-size="46" font-weight="800" fill="#111827">Graphify memory map</text>
  <g stroke-width="3" stroke="#d0d5dd">
    <line x1="318" y1="310" x2="528" y2="220"/><line x1="318" y1="310" x2="560" y2="430"/><line x1="528" y1="220" x2="780" y2="262"/><line x1="560" y1="430" x2="818" y2="450"/><line x1="780" y1="262" x2="818" y2="450"/><line x1="780" y1="262" x2="970" y2="330"/>
  </g>
  <g font-family="-apple-system,Segoe UI,sans-serif" font-size="18" font-weight="700">
    <circle cx="318" cy="310" r="70" fill="#0039a6"/><text x="274" y="316" fill="#fff">OCR</text>
    <circle cx="528" cy="220" r="82" fill="#f8fafc" stroke="#0039a6" stroke-width="4"/><text x="474" y="226" fill="#111827">Extraction</text>
    <circle cx="560" cy="430" r="86" fill="#f8fafc" stroke="#d52b1e" stroke-width="4"/><text x="506" y="436" fill="#111827">Atomization</text>
    <circle cx="780" cy="262" r="74" fill="#d52b1e"/><text x="742" y="268" fill="#fff">Sources</text>
    <circle cx="818" cy="450" r="78" fill="#f8fafc" stroke="#0039a6" stroke-width="4"/><text x="772" y="456" fill="#111827">Skills</text>
    <circle cx="970" cy="330" r="84" fill="#111827"/><text x="918" y="336" fill="#fff">Agents</text>
  </g>
  <text x="72" y="650" font-family="-apple-system,Segoe UI,sans-serif" font-size="24" fill="#475467">Graph context lets agents retrieve related knowledge without reading the whole vault.</text>
</svg>
