<svg xmlns="http://www.w3.org/2000/svg" width="1280" height="720" viewBox="0 0 1280 720">
  <rect width="1280" height="720" fill="#f8fafc"/>
  <text x="72" y="96" font-family="-apple-system,Segoe UI,sans-serif" font-size="48" font-weight="800" fill="#111827">Website ingestion</text>
  <g font-family="-apple-system,Segoe UI,sans-serif">
    <rect x="72" y="150" width="260" height="380" rx="14" fill="#fff" stroke="#e5e7eb"/>
    <text x="104" y="205" font-size="28" font-weight="700" fill="#0039a6">Discover</text>
    <text x="104" y="252" font-size="20" fill="#475467">robots.txt</text>
    <text x="104" y="292" font-size="20" fill="#475467">sitemap.xml</text>
    <text x="104" y="332" font-size="20" fill="#475467">same-origin links</text>
    <rect x="394" y="150" width="260" height="380" rx="14" fill="#fff" stroke="#e5e7eb"/>
    <text x="426" y="205" font-size="28" font-weight="700" fill="#d52b1e">Extract</text>
    <text x="426" y="252" font-size="20" fill="#475467">title</text>
    <text x="426" y="292" font-size="20" fill="#475467">headings</text>
    <text x="426" y="332" font-size="20" fill="#475467">visible text</text>
    <text x="426" y="372" font-size="20" fill="#475467">GitHub links</text>
    <rect x="716" y="150" width="260" height="380" rx="14" fill="#fff" stroke="#e5e7eb"/>
    <text x="748" y="205" font-size="28" font-weight="700" fill="#0039a6">Refine</text>
    <text x="748" y="252" font-size="20" fill="#475467">meaning</text>
    <text x="748" y="292" font-size="20" fill="#475467">verification</text>
    <text x="748" y="332" font-size="20" fill="#475467">atom notes</text>
    <rect x="1038" y="150" width="170" height="380" rx="14" fill="#111827"/>
    <text x="1070" y="205" font-size="28" font-weight="700" fill="#fff">Vault</text>
    <text x="1070" y="252" font-size="20" fill="#fff">final</text>
    <text x="1070" y="292" font-size="20" fill="#fff">knowledge</text>
    <path d="M342 340h40" stroke="#0039a6" stroke-width="5"/><path d="M664 340h40" stroke="#d52b1e" stroke-width="5"/><path d="M986 340h40" stroke="#0039a6" stroke-width="5"/>
  </g>
</svg>
